<svg width="20" height="21" viewBox="0 0 20 21" fill="none" xmlns="http://www.w3.org/2000/svg">
<path d="M18.8571 16.9543C18.3647 15.7881 17.6502 14.7288 16.7534 13.8354C15.8593 12.9394 14.8002 12.2251 13.6345 11.7318C13.6241 11.7266 13.6136 11.724 13.6032 11.7187C15.2292 10.5443 16.2862 8.63115 16.2862 6.47271C16.2862 2.89706 13.3892 0 9.81353 0C6.23788 0 3.34082 2.89706 3.34082 6.47271C3.34082 8.63115 4.39785 10.5443 6.02386 11.7213C6.01342 11.7266 6.00298 11.7292 5.99254 11.7344C4.82328 12.2277 3.77407 12.935 2.87364 13.838C1.97766 14.7321 1.2633 15.7913 0.770005 16.9569C0.285392 18.0982 0.0240298 19.3217 6.52648e-05 20.5613C-0.000631348 20.5892 0.00425458 20.6169 0.0144353 20.6428C0.024616 20.6687 0.0398854 20.6924 0.0593438 20.7123C0.0788022 20.7323 0.102056 20.7481 0.127735 20.7589C0.153413 20.7698 0.180998 20.7753 0.208862 20.7753H1.77484C1.88968 20.7753 1.98103 20.684 1.98364 20.5717C2.03584 18.5568 2.84493 16.6698 4.27519 15.2396C5.75504 13.7597 7.72034 12.9454 9.81353 12.9454C11.9067 12.9454 13.872 13.7597 15.3519 15.2396C16.7821 16.6698 17.5912 18.5568 17.6434 20.5717C17.646 20.6866 17.7374 20.7753 17.8522 20.7753H19.4182C19.4461 20.7753 19.4736 20.7698 19.4993 20.7589C19.525 20.7481 19.5483 20.7323 19.5677 20.7123C19.5872 20.6924 19.6024 20.6687 19.6126 20.6428C19.6228 20.6169 19.6277 20.5892 19.627 20.5613C19.6009 19.3137 19.3425 18.1001 18.8571 16.9543ZM9.81353 10.9618C8.61556 10.9618 7.48805 10.4947 6.63981 9.64643C5.79158 8.79819 5.32439 7.67068 5.32439 6.47271C5.32439 5.27474 5.79158 4.14723 6.63981 3.29899C7.48805 2.45076 8.61556 1.98357 9.81353 1.98357C11.0115 1.98357 12.139 2.45076 12.9872 3.29899C13.8355 4.14723 14.3027 5.27474 14.3027 6.47271C14.3027 7.67068 13.8355 8.79819 12.9872 9.64643C12.139 10.4947 11.0115 10.9618 9.81353 10.9618Z" fill="#2E2E2E"/>
</svg>
